<svg width="40" height="40" viewBox="0 0 40 40" fill="none" xmlns="http://www.w3.org/2000/svg">
<path d="M18.1667 3.5C10.5 4.33334 4.33333 10.5 3.5 18C2.66667 25.8333 7.16667 32.8333 14 35.5C14.5 35.6667 15 35.3333 15 34.6667V32C15 32 14.3333 32.1667 13.5 32.1667C11.1667 32.1667 10.1667 30.1667 10 29C9.83333 28.3333 9.5 27.8333 9 27.3333C8.5 27.1667 8.33333 27.1667 8.33333 27C8.33333 26.6667 8.83333 26.6667 9 26.6667C10 26.6667 10.8333 27.8333 11.1667 28.3333C12 29.6667 13 30 13.5 30C14.1667 30 14.6667 29.8333 15 29.6667C15.1667 28.5 15.6667 27.3333 16.6667 26.6667C12.8333 25.8333 10 23.6667 10 20C10 18.1667 10.8333 16.3333 12 15C11.8333 14.6667 11.6667 13.8333 11.6667 12.6667C11.6667 12 11.6667 11 12.1667 10C12.1667 10 14.5 10 16.8333 12.1667C17.6667 11.8333 18.8333 11.6667 20 11.6667C21.1667 11.6667 22.3333 11.8333 23.3333 12.1667C25.5 10 28 10 28 10C28.3333 11 28.3333 12 28.3333 12.6667C28.3333 14 28.1667 14.6667 28 15C29.1667 16.3333 30 18 30 20C30 23.6667 27.1667 25.8333 23.3333 26.6667C24.3333 27.5 25 29 25 30.5V34.8333C25 35.3333 25.5 35.8333 26.1667 35.6667C32.3333 33.1667 36.6667 27.1667 36.6667 20.1667C36.6667 10.1667 28.1667 2.33334 18.1667 3.5Z" fill="#FFE8C5"/>
</svg>
